<svg width="16" height="14" viewBox="0 0 16 14" fill="none" xmlns="http://www.w3.org/2000/svg">
<path d="M2 4.53414e-09C1.54688 -3.04944e-05 1.10719 0.153804 0.752922 0.436308C0.398655 0.718813 0.150818 1.11324 0.05 1.555L8 6.414L15.95 1.555C15.8492 1.11324 15.6013 0.718813 15.2471 0.436308C14.8928 0.153804 14.4531 -3.04944e-05 14 4.53414e-09H2ZM0 9.8V2.698L5.803 6.244L0 9.8ZM6.761 6.83L0.191 10.856C0.353183 11.1985 0.609322 11.4878 0.929588 11.6904C1.24985 11.8929 1.62107 12.0003 2 12H8.256C8.08613 11.5182 7.99956 11.0109 8 10.5C7.99931 9.8431 8.14278 9.19405 8.42027 8.59863C8.69776 8.00321 9.10252 7.47594 9.606 7.054L9.239 6.829L8 7.586L6.761 6.83ZM16 7.671V2.697L10.197 6.243L10.535 6.451C11.1475 6.15399 11.8193 5.99978 12.5 6C13.914 6 15.175 6.652 16 7.671Z" fill="white"/>
<path d="M15.834 10.244C15.834 11.412 15.257 12.269 14.247 12.269C13.744 12.269 13.245 12.041 13.127 11.621H13.084C12.966 12.037 12.541 12.264 12.069 12.264C11.299 12.264 10.81 11.722 10.81 10.83V10.301C10.81 9.457 11.291 8.901 12.07 8.901C12.655 8.901 12.94 9.234 13.023 9.531H13.053V8.963H13.958V11.153C13.958 11.425 14.138 11.573 14.369 11.573C14.684 11.573 15.008 11.158 15.008 10.183V10.065C15.008 8.788 14.058 7.739 12.524 7.739H12.484C10.902 7.739 9.844 8.806 9.844 10.463V10.62C9.844 12.487 11.081 13.274 12.414 13.274H12.459C12.966 13.274 13.394 13.204 13.639 13.094V13.825C13.42 13.925 12.996 14 12.402 14H12.358C10.438 14 9 12.82 9 10.646V10.432C9 8.36 10.421 7 12.485 7H12.52C14.64 7 15.834 8.43 15.834 10.034V10.244ZM11.794 10.454V10.681C11.794 11.267 12.021 11.481 12.375 11.481C12.685 11.481 12.939 11.311 12.939 10.738V10.371C12.939 9.855 12.664 9.663 12.367 9.663C12.021 9.663 11.794 9.908 11.794 10.454Z" fill="white"/>
</svg>
