<svg width="48" height="48" viewBox="0 0 48 48" fill="none" xmlns="http://www.w3.org/2000/svg">
<circle cx="24" cy="24" r="24" fill="black"/>
<path d="M16 31.1V15H23.935C25.729 15 27.3083 15.3297 28.673 15.989C30.0377 16.633 31.1033 17.553 31.87 18.749C32.6367 19.945 33.02 21.371 33.02 23.027C33.02 24.6983 32.6367 26.1397 31.87 27.351C31.1033 28.547 30.0377 29.4747 28.673 30.134C27.3083 30.778 25.729 31.1 23.935 31.1H16ZM21.428 26.868H23.705C24.4717 26.868 25.1387 26.7223 25.706 26.431C26.2887 26.1397 26.741 25.7103 27.063 25.143C27.385 24.5603 27.546 23.855 27.546 23.027C27.546 22.2143 27.385 21.5243 27.063 20.957C26.741 20.3897 26.2887 19.9603 25.706 19.669C25.1387 19.3777 24.4717 19.232 23.705 19.232H21.428V26.868Z" fill="white"/>
</svg>
