<svg width="314" height="297" viewBox="0 0 314 297" fill="none" xmlns="http://www.w3.org/2000/svg">
<path d="M0 297V0H146.392C179.489 0 208.626 6.08205 233.803 18.2443C258.98 30.1243 278.639 47.0957 292.784 69.1586C306.929 91.2214 314 117.527 314 148.076C314 178.907 306.929 205.496 292.784 227.841C278.639 249.904 258.98 267.018 233.803 279.18C208.626 291.06 179.489 297 146.392 297H0ZM100.141 218.931H142.149C156.293 218.931 168.599 216.244 179.065 210.87C189.815 205.496 198.159 197.575 204.1 187.11C210.041 176.361 213.011 163.35 213.011 148.076C213.011 133.084 210.041 120.355 204.1 109.89C198.159 99.4249 189.815 91.5037 179.065 86.13C168.599 80.7563 156.293 78.0686 142.149 78.0686H100.141V218.931Z" fill="white"/>
</svg>
