<svg width="1700" height="2061" viewBox="0 0 1700 2061" fill="none" xmlns="http://www.w3.org/2000/svg">
<rect width="1700" height="2061" fill="black"/>
<path d="M656.629 848C708.808 848 750.074 861.13 780.427 887.39C810.78 913.31 825.956 950.483 825.956 998.912H718.016C718.016 978.449 712.56 962.249 701.646 950.313C691.074 938.376 675.898 932.408 656.117 932.408C633.267 932.408 616.386 939.57 605.472 953.894C594.9 968.218 589.614 988.169 589.614 1013.75V1046.49C589.614 1071.72 594.9 1091.68 605.472 1106.34C616.386 1120.66 632.926 1127.83 655.094 1127.83C676.921 1127.83 693.461 1122.2 704.716 1110.94C715.97 1099.69 721.597 1083.83 721.597 1063.37H825.956C825.956 1111.46 811.121 1148.29 781.45 1173.87C752.121 1199.44 710.513 1212.23 656.629 1212.23C596.605 1212.23 551.076 1196.89 520.041 1166.19C489.347 1135.5 474 1090.14 474 1030.12C474 970.093 489.347 924.735 520.041 894.041C551.076 863.347 596.605 848 656.629 848Z" fill="#FFF500"/>
<path d="M1043.37 848C991.192 848 949.926 861.13 919.573 887.39C889.22 913.31 874.044 950.483 874.044 998.912H981.984C981.984 978.449 987.44 962.249 998.354 950.313C1008.93 938.376 1024.1 932.408 1043.88 932.408C1066.73 932.408 1083.61 939.57 1094.53 953.894C1105.1 968.218 1110.39 988.169 1110.39 1013.75V1046.49C1110.39 1071.72 1105.1 1091.68 1094.53 1106.34C1083.61 1120.66 1067.07 1127.83 1044.91 1127.83C1023.08 1127.83 1006.54 1122.2 995.284 1110.94C984.03 1099.69 978.403 1083.83 978.403 1063.37H874.044C874.044 1111.46 888.879 1148.29 918.55 1173.87C947.879 1199.44 989.487 1212.23 1043.37 1212.23C1103.4 1212.23 1148.92 1196.89 1179.96 1166.19C1210.65 1135.5 1226 1090.14 1226 1030.12C1226 970.093 1210.65 924.735 1179.96 894.041C1148.92 863.347 1103.4 848 1043.37 848Z" fill="#FFF500"/>
</svg>
